<svg xmlns="http://www.w3.org/2000/svg" viewBox="0 0 351.13 260.63"><defs><style>.cls-1{fill:#177fff;}</style></defs><g id="Layer_2" data-name="Layer 2"><g id="Layer_1-2" data-name="Layer 1"><path class="cls-1" d="M351.13,0V2.41l-72.8,258.22H234.09L190.24,100.55q-8.85-32.17-14.88-67.17-2.82,14.9-6.43,32.58t-8.05,34.59L118.65,260.63H74.41L0,2.41V0H37.41l45,164.1q6.84,24.54,14.88,61.54,6-38.61,12.47-61.54L155.25,0h43.44l46.25,164.1q4.83,17.29,13.68,61.94,2.42-14.47,6.44-31.37t7.64-30.57L314.93,0Z"/><path class="cls-1" d="M199.52,0l78.81,258.22v2.41H234.09l-2.48-74.41h-111l-1.95,74.41H74.41v-2.41L154.48,0ZM131.88,155.65h88.48l-45-122.27Z"/></g></g></svg>