<svg xmlns="http://www.w3.org/2000/svg" viewBox="0 0 453.06 453.06"><defs><style>.cls-1{fill:#177fff;}</style></defs><g id="Layer_2" data-name="Layer 2"><g id="Layer_1-2" data-name="Layer 1"><polygon class="cls-1" points="261.76 158.4 189.89 158.4 225.87 60.39 261.76 158.4"/><path class="cls-1" d="M226.51,0C101.41,0,0,101.41,0,226.51S101.41,453.06,226.51,453.06,453.06,351.65,453.06,226.51,351.65,0,226.51,0ZM368.39,187.53,309.27,397.29H273.33l-35.62-130q-7.14-26.13-12.07-54.54c-1.54,8-3.26,16.88-5.21,26.46s-4.13,19-6.54,28.08l-34.3,130H143.65L83.22,187.53v-1.95h30.35l15.29,55.67L208.22,32h36.62l79.54,209.72v.63L339,185.58h29.4Zm-44,56.13v-1.32l-.32,1.32Zm-53.5-60.44H180.72l-21.91,60.44H129.54l20.65,75.23q5.51,19.94,12.07,49.95c3.26-20.87,6.67-37.56,10.12-49.95l36.93-133.31h35.3l37.57,133.31q3.88,14,11.07,50.32,2-11.77,5.27-25.5t6.17-24.82l19.37-75.23h-31Zm-142.2,60.44h.86l-.68-2.41-.18.46Z"/><path class="cls-1" d="M324.06,243.66h.32v-1.32Zm-195.38-1.95v1.95h.86l-.68-2.41Z"/><path class="cls-1" d="M128.86,241.25l-.18.46v1.95h.86Zm195.2,2.41h.32v-1.32Z"/></g></g></svg>